HIERARCHY
ROOT Hips
{
	OFFSET -0.001795 -0.223333 0.028219
	CHANNELS 6 Xposition Yposition Zposition Zrotation Yrotation Xrotation 
	JOINT LeftUpLeg
	{
		OFFSET 0.069520 -0.091406 -0.006815
		CHANNELS 3 Zrotation Yrotation Xrotation
		JOINT LeftLeg
		{
			OFFSET 0.034277 -0.375199 -0.004496
			CHANNELS 3 Zrotation Yrotation Xrotation
			JOINT LeftFoot
			{
				OFFSET -0.013596 -0.397961 -0.043693
				CHANNELS 3 Zrotation Yrotation Xrotation
				JOINT LeftToe
				{
					OFFSET 0.026358 -0.055791 0.119288
					CHANNELS 3 Zrotation Yrotation Xrotation
					End Site
					{
						OFFSET 0.000000 0.000000 0.000000
					}
				}
			}
		}
	}
	JOINT RightUpLeg
	{
		OFFSET -0.067670 -0.090522 -0.004320
		CHANNELS 3 Zrotation Yrotation Xrotation
		JOINT RightLeg
		{
			OFFSET -0.038290 -0.382569 -0.008850
			CHANNELS 3 Zrotation Yrotation Xrotation
			JOINT RightFoot
			{
				OFFSET 0.015774 -0.398415 -0.042312
				CHANNELS 3 Zrotation Yrotation Xrotation
				JOINT RightToe
				{
					OFFSET -0.025372 -0.048144 0.123348
					CHANNELS 3 Zrotation Yrotation Xrotation
					End Site
					{
						OFFSET 0.000000 0.000000 0.000000
					}
				}
			}
		}
	}
	JOINT Spine
	{
		OFFSET -0.002533 0.108963 -0.026696
		CHANNELS 3 Zrotation Yrotation Xrotation
		JOINT Spine1
		{
			OFFSET 0.005487 0.135180 0.001092
			CHANNELS 3 Zrotation Yrotation Xrotation
			JOINT Spine2
			{
				OFFSET 0.001457 0.052922 0.025425
				CHANNELS 3 Zrotation Yrotation Xrotation
				JOINT Neck
				{
					OFFSET -0.002778 0.213870 -0.042857
					CHANNELS 3 Zrotation Yrotation Xrotation
					JOINT Head
					{
						OFFSET 0.005152 0.064970 0.051349
						CHANNELS 3 Zrotation Yrotation Xrotation
						End Site
						{
							OFFSET 0.000000 0.000000 0.000000
						}
					}
				}
				JOINT LeftShoulder
				{
					OFFSET 0.078845 0.121749 -0.034090
					CHANNELS 3 Zrotation Yrotation Xrotation
					JOINT LeftArm
					{
						OFFSET 0.090977 0.030469 -0.008868
						CHANNELS 3 Zrotation Yrotation Xrotation
						JOINT LeftForeArm
						{
							OFFSET 0.259612 -0.012772 -0.027456
							CHANNELS 3 Zrotation Yrotation Xrotation
							JOINT LeftHand
							{
								OFFSET 0.249234 0.008986 -0.001171
								CHANNELS 3 Zrotation Yrotation Xrotation
								End Site
								{
									OFFSET 0.000000 0.000000 0.000000
								}
							}
						}
					}
				}
				JOINT RightShoulder
				{
					OFFSET -0.081759 0.118833 -0.038615
					CHANNELS 3 Zrotation Yrotation Xrotation
					JOINT RightArm
					{
						OFFSET -0.096012 0.032551 -0.009143
						CHANNELS 3 Zrotation Yrotation Xrotation
						JOINT RightForeArm
						{
							OFFSET -0.253742 -0.013329 -0.021401
							CHANNELS 3 Zrotation Yrotation Xrotation
							JOINT RightHand
							{
								OFFSET -0.255298 0.007772 -0.005559
								CHANNELS 3 Zrotation Yrotation Xrotation
								End Site
								{
									OFFSET 0.000000 0.000000 0.000000
								}
							}
						}
					}
				}
			}
		}
	}
}
MOTION
Frames: 7
Frame Time: 0.050000
0.006425 0.959359 -0.051059 0.499773 -2.832628 1.464366 4.710708 -0.076390 -0.630958 -3.454641 0.420269 -5.184984 0.333560 5.888447 15.829620 0.000000 0.000000 0.000000 -7.821950 0.311034 -1.539160 1.283170 -0.096730 1.059741 -5.650736 -16.520622 19.052229 0.000000 0.000000 0.000000 -3.130628 -0.079097 11.908730 7.000094 -1.430709 -20.610710 1.047346 -1.014571 27.313900 -3.427086 3.122199 -25.949068 0.000000 0.000000 0.000000 -17.461194 -12.021761 6.140613 -49.348958 -30.860071 4.545266 -79.337484 -54.778918 53.542380 0.000000 0.000000 0.000000 5.567246 19.497033 7.213710 45.558571 13.014194 -1.720308 41.036313 63.258106 28.381951 0.000000 0.000000 0.000000 
0.006834 0.959287 -0.051935 0.371523 -2.950453 1.593686 4.933242 -0.093374 -0.953351 -3.441783 0.418886 -4.984342 0.513288 6.110915 15.691627 0.000000 0.000000 0.000000 -7.593279 0.316671 -1.732966 1.032395 -0.072481 0.954183 -5.584967 -16.450602 19.221869 0.000000 0.000000 0.000000 -3.296390 -0.058781 12.267081 7.179563 -1.480212 -20.599642 1.389201 -0.457924 27.013825 -3.324057 3.145443 -26.065560 0.000000 0.000000 0.000000 -17.753104 -11.453100 5.737448 -48.980873 -29.858996 4.054408 -78.277103 -54.314753 51.985162 0.000000 0.000000 0.000000 6.113740 19.868632 7.475349 46.141988 14.499560 -1.141094 34.825618 63.264876 24.468842 0.000000 0.000000 0.000000 
0.007398 0.959222 -0.052826 0.267028 -3.150351 1.697478 5.085136 -0.103412 -1.179280 -3.585633 0.430415 -4.891992 0.775884 6.471213 15.635967 0.000000 0.000000 0.000000 -7.480440 0.327582 -1.968094 0.937595 -0.064657 0.866254 -5.624773 -16.538212 19.221957 0.000000 0.000000 0.000000 -3.454865 -0.037038 12.711919 7.359254 -1.532371 -20.577215 1.665874 0.276668 26.807598 -2.991411 3.053489 -25.874993 0.000000 0.000000 0.000000 -18.185196 -10.997810 5.367183 -48.992824 -29.065893 3.728683 -77.575731 -53.460874 50.368026 0.000000 0.000000 0.000000 7.130230 19.798853 7.650349 46.585644 15.834037 -0.612308 29.176615 63.075153 20.952982 0.000000 0.000000 0.000000 
0.008011 0.959035 -0.053632 0.044824 -3.164702 1.900904 5.324817 -0.119975 -1.498603 -3.743277 0.441607 -4.831497 1.058974 6.867603 15.491819 0.000000 0.000000 0.000000 -7.296818 0.339624 -2.305925 0.850750 -0.055795 0.852017 -5.409396 -16.214618 19.276905 0.000000 0.000000 0.000000 -3.472348 -0.034013 12.819980 7.693199 -1.634836 -20.425375 1.835172 0.636948 26.568581 -3.083679 3.164642 -25.780266 0.000000 0.000000 0.000000 -18.549231 -10.884784 5.228110 -48.921296 -28.418954 3.463194 -77.650409 -53.080043 49.880896 0.000000 0.000000 0.000000 7.921436 20.079242 7.919512 47.022857 16.449549 -0.339217 25.297906 63.424854 18.743574 0.000000 0.000000 0.000000 
0.008656 0.959115 -0.054257 0.004591 -2.970063 2.139343 5.275596 -0.151668 -2.065842 -3.726105 0.437718 -4.663410 1.326183 7.347072 15.695668 0.000000 0.000000 0.000000 -7.205633 0.347853 -2.547315 0.652360 -0.036704 0.802401 -5.366720 -16.158419 19.634605 0.000000 0.000000 0.000000 -3.628473 -0.014933 13.118590 8.044694 -1.727177 -20.384743 1.963031 0.853246 26.340575 -3.420628 3.409562 -25.513625 0.000000 0.000000 0.000000 -18.804515 -10.528806 4.950677 -49.366368 -28.335696 3.527263 -77.722045 -52.665359 49.421457 0.000000 0.000000 0.000000 8.087378 19.670130 7.819495 48.260859 16.564311 -0.230184 25.180560 64.306552 19.163390 0.000000 0.000000 0.000000 
0.009274 0.959171 -0.054746 -0.133178 -2.908809 2.246045 5.215642 -0.173967 -2.496957 -3.393909 0.411428 -4.556971 1.510626 7.628762 15.666399 0.000000 0.000000 0.000000 -7.130572 0.349198 -2.590753 0.650387 -0.039373 0.722528 -5.033921 -15.632951 19.573739 0.000000 0.000000 0.000000 -3.530001 -0.029227 13.252469 8.344913 -1.798175 -20.459118 1.928139 1.062276 26.461010 -3.915403 3.741393 -25.610945 0.000000 0.000000 0.000000 -19.005303 -10.561450 4.912340 -49.984286 -28.570202 3.720203 -77.013191 -52.135141 48.337000 0.000000 0.000000 0.000000 8.820014 19.057194 7.698927 49.327203 16.000207 -0.439744 27.758851 64.682004 21.137725 0.000000 0.000000 0.000000 
0.009918 0.959282 -0.055278 -0.180417 -2.701135 2.372247 5.141423 -0.201237 -2.984726 -3.258553 0.396585 -4.146291 1.584969 7.728173 15.487560 0.000000 0.000000 0.000000 -7.103795 0.358756 -2.888111 0.761451 -0.040620 1.039550 -5.056170 -15.623810 19.443170 0.000000 0.000000 0.000000 -3.606636 -0.022209 13.526852 8.737994 -1.867726 -20.748548 1.909611 1.081235 26.488195 -4.250337 3.958967 -25.292423 0.000000 0.000000 0.000000 -19.018025 -10.723736 4.957304 -50.441647 -29.270952 4.117752 -76.127016 -52.153232 47.645663 0.000000 0.000000 0.000000 9.281458 18.246049 7.436675 50.765222 14.260356 -1.130955 33.291465 65.310709 25.239531 0.000000 0.000000 0.000000 
